<?xml version="1.0" encoding="UTF-8"?>
<svg version="1.1" xmlns="http://www.w3.org/2000/svg" width="192" height="192">
<path d="M0 0 C63.36 0 126.72 0 192 0 C192 63.36 192 126.72 192 192 C128.64 192 65.28 192 0 192 C0 128.64 0 65.28 0 0 Z " fill="#FBFBFB" transform="translate(0,0)"/>
<path d="M0 0 C3.16115776 1.36983503 3.9927092 1.9890638 6 5 C5.91538413 8.89232996 5.321163 10.6146044 2.8125 13.625 C-2.37686293 18.00712869 -7.90628234 21.09233777 -14 24 C-13.35933594 24.268125 -12.71867187 24.53625 -12.05859375 24.8125 C-5.06717977 27.97999605 0.48917762 31.97835523 4 39 C5.0200387 46.57743036 3.57255164 52.83033702 -1 59 C-6.31506044 63.50849485 -11.25095617 65.13708649 -18.1875 65.0625 C-19.27417969 65.05347656 -20.36085938 65.04445313 -21.48046875 65.03515625 C-22.31191406 65.02355469 -23.14335938 65.01195313 -24 65 C-23.67 63.68 -23.34 62.36 -23 61 C-26.465 60.505 -26.465 60.505 -30 60 C-30.5259375 60.9590625 -30.5259375 60.9590625 -31.0625 61.9375 C-33.77184206 64.82163832 -36.15858911 64.7100822 -40 65 C-42.45391569 61.31912647 -42.22802759 58.55644412 -42.125 54.3125 C-42.11597656 53.61060547 -42.10695313 52.90871094 -42.09765625 52.18554688 C-42.07413704 50.45688475 -42.03826713 48.72839855 -42 47 C-40.68 47 -39.36 47 -38 47 C-38 45.02 -38 43.04 -38 41 C-36.35 41 -34.7 41 -33 41 C-33 40.01 -33 39.02 -33 38 C-28.59139921 38.52305433 -24.36255922 39.12748816 -20 40 C-20 46.93 -20 53.86 -20 61 C-11.16563407 59.12693766 -11.16563407 59.12693766 -4 54 C-2.10948121 50.90460832 -1.75203737 48.60577165 -1.8125 45 C-1.82216797 43.7315625 -1.82216797 43.7315625 -1.83203125 42.4375 C-2.05117922 39.13545009 -2.05117922 39.13545009 -3 36 C-4.74732729 34.83319639 -4.74732729 34.83319639 -7 34 C-9.94170209 32.52914895 -12.88292879 31.05758965 -15.8203125 29.578125 C-17.82350101 28.5839135 -19.83797735 27.6118361 -21.8671875 26.671875 C-30.87164269 22.45020165 -30.87164269 22.45020165 -33 18 C-33.76132556 12.63832423 -33.92282946 8.47075946 -31 3.8125 C-30.34 3.214375 -29.68 2.61625 -29 2 C-28.34 2.33 -27.68 2.66 -27 3 C-27 3.66 -27 4.32 -27 5 C-26.67 4.525625 -26.34 4.05125 -26 3.5625 C-22.96841014 1.19407042 -19.74039561 0.8795706 -16 1 C-11.90203904 2.46908034 -8.93633397 4.01975796 -7 8 C-6.76507171 10.71994749 -6.86297849 13.25956977 -7 16 C-7.495 14.515 -7.495 14.515 -8 13 C-8.99 13 -9.98 13 -11 13 C-11 14.98 -11 16.96 -11 19 C-9.37021552 18.07084243 -7.74631725 17.13135466 -6.125 16.1875 C-5.22007813 15.66542969 -4.31515625 15.14335938 -3.3828125 14.60546875 C-0.76726817 13.06266201 -0.76726817 13.06266201 1 10 C1.39958487 6.57982443 1.5635348 3.12706959 0 0 Z " fill="#1B4978" transform="translate(115,56)"/>
<path d="M0 0 C0 3.96 0 7.92 0 12 C-0.99 12 -1.98 12 -3 12 C-3.2475 11.236875 -3.495 10.47375 -3.75 9.6875 C-5.20109742 6.56764054 -6.02150001 5.68475931 -9 4 C-11.71161686 3.65123899 -14.10523999 3.47636667 -16.8125 3.5 C-17.52937988 3.50354492 -18.24625977 3.50708984 -18.98486328 3.51074219 C-24.97598226 3.6997192 -27.90113475 4.70595069 -32 9 C-34.57068289 13.26399961 -34.51577441 17.14664734 -34 22 C-32.40417806 27.18642129 -29.76624348 29.24981602 -25.2421875 31.8515625 C-22.29672643 33.36021329 -19.28232548 34.66433094 -16.2421875 35.96875 C-5.20145985 41.04671533 -5.20145985 41.04671533 -3 46 C-2.31109285 50.01601555 -2.19807724 53.4741192 -4.125 57.140625 C-5.33047284 58.82554727 -6.6572634 60.42228449 -8 62 C-8.66 61.67 -9.32 61.34 -10 61 C-9.34 60.01 -8.68 59.02 -8 58 C-7.60940181 55.88943525 -7.60940181 55.88943525 -7.625 53.625 C-7.59664062 52.87476563 -7.56828125 52.12453125 -7.5390625 51.3515625 C-8.2085064 47.93626396 -9.52346953 46.44120753 -12 44 C-14.51020628 42.58059764 -17.12534573 41.53714726 -19.8125 40.5 C-27.77912903 37.37319161 -34.75384074 33.9102585 -39.1171875 26.23828125 C-41.01999246 21.41391293 -40.81931271 16.7181904 -39.3359375 11.796875 C-36.74427688 5.89239601 -32.44146343 1.71489873 -26.6953125 -1.1484375 C-18.21383388 -3.82809306 -8.45321232 -2.04926359 0 0 Z " fill="#1D4A79" transform="translate(113,52)"/>
<path d="M0 0 C0.495 1.485 0.495 1.485 1 3 C1.66 3.33 2.32 3.66 3 4 C4.6122851 7.22457019 4.59125774 10.51292313 4 14 C0.98438409 17.90256176 -2.78667206 20.47200324 -7 23 C-7.66 23 -8.32 23 -9 23 C-9 21.02 -9 19.04 -9 17 C-8.01 17 -7.02 17 -6 17 C-6.26845206 12.19156768 -6.26845206 12.19156768 -8.5625 8.125 C-11.999247 6.53880908 -15.20686166 5.856435 -19 6 C-21.8201875 7.19126532 -21.8201875 7.19126532 -24 9 C-24.99 9.66 -25.98 10.32 -27 11 C-26.67 9.68 -26.34 8.36 -26 7 C-28.22876774 8.29898394 -28.22876774 8.29898394 -30 11 C-30.52782321 14.71143054 -30.62704091 18.29989372 -30 22 C-28.54435938 23.70645416 -28.54435938 23.70645416 -27 25 C-27 25.66 -27 26.32 -27 27 C-26.17628906 27.25136719 -25.35257813 27.50273438 -24.50390625 27.76171875 C-20.48735737 29.18116802 -16.74944705 30.92254306 -12.9375 32.8125 C-11.89625977 33.3084668 -11.89625977 33.3084668 -10.83398438 33.81445312 C-5.94269189 36.23455131 -1.52933949 38.94132102 1 44 C1.54035594 48.9252115 1.54435469 52.86941718 -0.625 57.375 C-3.19313072 60.21346027 -5.6717879 62.11883664 -9 64 C-9.66 64 -10.32 64 -11 64 C-11 63.34 -11 62.68 -11 62 C-10.1028125 61.6596875 -10.1028125 61.6596875 -9.1875 61.3125 C-6.23261503 59.53956902 -5.35500137 58.18425322 -4 55 C-3.32254283 50.50266385 -3.15380085 47.30973482 -5.67578125 43.40625 C-8.19856379 40.79442808 -10.34303088 39.52408065 -13.625 38 C-14.67945312 37.49597656 -15.73390625 36.99195313 -16.8203125 36.47265625 C-18.83447597 35.53980658 -20.84994502 34.60976639 -22.8671875 33.68359375 C-27.65047765 31.41969233 -31.16477758 29.68428052 -34 25 C-35.78983568 19.63049295 -35.88431724 14.80264667 -33.375 9.6875 C-29.71197207 5.54249471 -26.6804554 3.24563108 -21.125 2.43359375 C-19.7501402 2.41391541 -18.37482515 2.41553381 -17 2.4375 C-16.31421875 2.41365234 -15.6284375 2.38980469 -14.921875 2.36523438 C-11.08671469 2.37621289 -8.50233959 2.98847218 -5.5 5.28515625 C-3 8 -3 8 -3 12 C-2.01 12 -1.02 12 0 12 C0 8.04 0 4.08 0 0 Z " fill="#E9EDF0" transform="translate(113,52)"/>
<path d="M0 0 C4.38686775 0.52047583 8.67025202 1.11900132 13 2 C12.8904307 5.45900478 12.75973152 8.91689109 12.625 12.375 C12.57859375 13.85226563 12.57859375 13.85226563 12.53125 15.359375 C12.49257812 16.30039063 12.45390625 17.24140625 12.4140625 18.2109375 C12.3826416 19.08024902 12.3512207 19.94956055 12.31884766 20.84521484 C12 23 12 23 10 25 C10 24.34 10 23.68 10 23 C7.69 22.67 5.38 22.34 3 22 C2.649375 22.639375 2.29875 23.27875 1.9375 23.9375 C-0.77184206 26.82163832 -3.15858911 26.7100822 -7 27 C-9.45391569 23.31912647 -9.22802759 20.55644412 -9.125 16.3125 C-9.11597656 15.61060547 -9.10695313 14.90871094 -9.09765625 14.18554688 C-9.07413704 12.45688475 -9.03826713 10.72839855 -9 9 C-7.68 9 -6.36 9 -5 9 C-5 7.02 -5 5.04 -5 3 C-3.35 3 -1.7 3 0 3 C0 2.01 0 1.02 0 0 Z " fill="#8AA1B8" transform="translate(82,94)"/>
<path d="M0 0 C2.76101146 1.82109266 4.52100548 3.04201097 6 6 C6.13415472 8.6723621 6.04318541 11.32250488 6 14 C5.67 13.01 5.34 12.02 5 11 C4.01 11 3.02 11 2 11 C2 13.31 2 15.62 2 18 C-1.61973402 19.31626692 -4.09567131 20 -8 20 C-8.66 18.68 -9.32 17.36 -10 16 C-10 16.66 -10 17.32 -10 18 C-10.66 18 -11.32 18 -12 18 C-12 17.34 -12 16.68 -12 16 C-12.66 16 -13.32 16 -14 16 C-15 12 -16 8 -17 4 C-16.443125 3.731875 -15.88625 3.46375 -15.3125 3.1875 C-12.92962603 2.04583073 -12.92962603 2.04583073 -10.75 0.3125 C-6.92830359 -1.51149147 -4.00952346 -1.21500711 0 0 Z " fill="#8AA2B8" transform="translate(102,58)"/>
<path d="M0 0 C0.495 1.485 0.495 1.485 1 3 C1.66 3.33 2.32 3.66 3 4 C4.6122851 7.22457019 4.59125774 10.51292313 4 14 C0.98438409 17.90256176 -2.78667206 20.47200324 -7 23 C-7.66 23 -8.32 23 -9 23 C-9 21.02 -9 19.04 -9 17 C-8.01 17 -7.02 17 -6 17 C-6.26845206 12.19156768 -6.26845206 12.19156768 -8.5625 8.125 C-11.999247 6.53880908 -15.20686166 5.856435 -19 6 C-21.8201875 7.19126532 -21.8201875 7.19126532 -24 9 C-24.99 9.66 -25.98 10.32 -27 11 C-26.67 9.68 -26.34 8.36 -26 7 C-28.30142435 8.78174788 -29.80034391 10.16304165 -30.48828125 13.046875 C-30.72323102 15.0246611 -30.86751458 17.01271872 -31 19 C-31.33 19 -31.66 19 -32 19 C-32.144375 18.05125 -32.28875 17.1025 -32.4375 16.125 C-32.82935399 13.1065506 -32.82935399 13.1065506 -34 11 C-31.32657138 7.33641264 -29.10389478 4.96199901 -25 3 C-22.24884792 2.6585954 -19.80620438 2.48980983 -17.0625 2.5 C-16.02706055 2.45746094 -16.02706055 2.45746094 -14.97070312 2.4140625 C-11.1110799 2.39942886 -8.51935489 2.96699551 -5.49609375 5.28125 C-3 8 -3 8 -3 12 C-2.01 12 -1.02 12 0 12 C0 8.04 0 4.08 0 0 Z " fill="#DEE0E5" transform="translate(113,52)"/>
<path d="M0 0 C1.32 0.33 2.64 0.66 4 1 C4.33 7.6 4.66 14.2 5 21 C0.88348273 23.05825864 0.13191749 23.34008135 -4 22 C-5.53266582 18.93466836 -5.10276471 15.73245728 -5.0625 12.375 C-5.05798828 11.66859375 -5.05347656 10.9621875 -5.04882812 10.234375 C-5.03703875 8.48954725 -5.01910324 6.744763 -5 5 C-3.68 5.33 -2.36 5.66 -1 6 C-0.67 4.02 -0.34 2.04 0 0 Z " fill="#758FAA" transform="translate(78,98)"/>
<path d="M0 0 C5.67311399 0.3846179 8.82305585 0.82305585 13 5 C14.60725635 8.21451269 14.05748185 11.43612536 14 15 C13.67 14.01 13.34 13.02 13 12 C11.68 12 10.36 12 9 12 C9 13.65 9 15.3 9 17 C8.01 17 7.02 17 6 17 C6.66 16.67 7.32 16.34 8 16 C8 14.68 8 13.36 8 12 C4.7 12 1.4 12 -2 12 C-0.68 11.67 0.64 11.34 2 11 C2 9.68 2 8.36 2 7 C0.35 7.33 -1.3 7.66 -3 8 C-3.33 7.01 -3.66 6.02 -4 5 C-3.01 4.67 -2.02 4.34 -1 4 C-1 4.66 -1 5.32 -1 6 C-0.01 6 0.98 6 2 6 C1.67 5.01 1.34 4.02 1 3 C0.34 3 -0.32 3 -1 3 C-0.67 2.01 -0.34 1.02 0 0 Z " fill="#7C95AF" transform="translate(94,57)"/>
<path d="M0 0 C4.29425875 1.07356469 4.74740471 1.5084773 7 5 C7.33 3.35 7.66 1.7 8 0 C8.99 0 9.98 0 11 0 C11 3.96 11 7.92 11 12 C10.01 12 9.02 12 8 12 C5.8125 9 5.8125 9 4 6 C3.67 7.98 3.34 9.96 3 12 C2.01 12 1.02 12 0 12 C0 8.04 0 4.08 0 0 Z " fill="#527395" transform="translate(106,131)"/>
<path d="M0 0 C0.66 0 1.32 0 2 0 C2 0.66 2 1.32 2 2 C2.94875 1.938125 3.8975 1.87625 4.875 1.8125 C5.90625 1.874375 6.9375 1.93625 8 2 C8.99 3.485 8.99 3.485 10 5 C10.33 4.01 10.66 3.02 11 2 C11.66 2 12.32 2 13 2 C12.71640113 3.4391134 12.42278601 4.87625518 12.125 6.3125 C11.96257812 7.11300781 11.80015625 7.91351563 11.6328125 8.73828125 C11 11 11 11 9 14 C8.01 14 7.02 14 6 14 C6 13.34 6 12.68 6 12 C6.66 12 7.32 12 8 12 C7.34 9.36 6.68 6.72 6 4 C5.01 4 4.02 4 3 4 C3 5.65 3 7.3 3 9 C3.66 9 4.32 9 5 9 C5 9.66 5 10.32 5 11 C3.35 10.67 1.7 10.34 0 10 C-1.125 2.25 -1.125 2.25 0 0 Z " fill="#406489" transform="translate(62,132)"/>
<path d="M0 0 C3.16115776 1.36983503 3.9927092 1.9890638 6 5 C5.91538413 8.89232996 5.321163 10.6146044 2.8125 13.625 C-2.96772484 18.50607876 -8.51175377 21.62092539 -16 23 C-16.99 22.67 -17.98 22.34 -19 22 C-18.20335938 21.68546875 -17.40671875 21.3709375 -16.5859375 21.046875 C-6.50014432 17.28870603 -6.50014432 17.28870603 1 10 C1.39958487 6.57982443 1.5635348 3.12706959 0 0 Z " fill="#E54142" transform="translate(115,56)"/>
<path d="M0 0 C0 0.66 0 1.32 0 2 C0.99 1.67 1.98 1.34 3 1 C3 2.32 3 3.64 3 5 C1.68 4.67 0.36 4.34 -1 4 C-1 4.66 -1 5.32 -1 6 C0.32 6 1.64 6 3 6 C3 7.32 3 8.64 3 10 C-2.625 11.125 -2.625 11.125 -6 10 C-6.66 9.34 -7.32 8.68 -8 8 C-7.9375 6.125 -7.9375 6.125 -7 4 C-2.66666667 0 -2.66666667 0 0 0 Z " fill="#91A7BC" transform="translate(93,58)"/>
<path d="M0 0 C0.66 0 1.32 0 2 0 C2.66 0.99 3.32 1.98 4 3 C4.33 2.01 4.66 1.02 5 0 C5.99 0 6.98 0 8 0 C8 1.32 8 2.64 8 4 C8.66 4 9.32 4 10 4 C10 2.68 10 1.36 10 0 C10.99 0 11.98 0 13 0 C12.34 2.64 11.68 5.28 11 8 C10.01 8 9.02 8 8 8 C7.67 7.34 7.34 6.68 7 6 C6.34 6.66 5.68 7.32 5 8 C4.01 8 3.02 8 2 8 C0.74335022 5.09399739 0 3.20395416 0 0 Z " fill="#3F6489" transform="translate(128,134)"/>
<path d="M0 0 C1.97909398 -0.02686553 3.95828971 -0.04633375 5.9375 -0.0625 C7.03964844 -0.07410156 8.14179687 -0.08570313 9.27734375 -0.09765625 C12 0 12 0 13 1 C13.04092937 3.33297433 13.04241723 5.66705225 13 8 C12.34 8 11.68 8 11 8 C11 6.02 11 4.04 11 2 C10.01 2 9.02 2 8 2 C8 3.98 8 5.96 8 8 C7.34 8 6.68 8 6 8 C6 6.02 6 4.04 6 2 C4.68 2 3.36 2 2 2 C2 3.98 2 5.96 2 8 C1.34 8 0.68 8 0 8 C0 5.36 0 2.72 0 0 Z " fill="#28517D" transform="translate(86,134)"/>
<path d="M0 0 C1.98 0 3.96 0 6 0 C7.4783226 2.95664519 7.06032783 5.74229737 7 9 C4.69 9 2.38 9 0 9 C-0.33 7.68 -0.66 6.36 -1 5 C-0.01 4.34 0.98 3.68 2 3 C1.34 2.67 0.68 2.34 0 2 C0 1.34 0 0.68 0 0 Z " fill="#507193" transform="translate(53,134)"/>
<path d="M0 0 C0.99 0 1.98 0 3 0 C3 5.94 3 11.88 3 18 C2.01 18.33 1.02 18.66 0 19 C0 12.73 0 6.46 0 0 Z " fill="#EFF3F5" transform="translate(79,99)"/>
<path d="M0 0 C1.99954746 -0.04254356 4.00041636 -0.04080783 6 0 C7 1 7 1 7.09765625 2.84765625 C7.06510417 4.8984375 7.03255208 6.94921875 7 9 C4.69 9 2.38 9 0 9 C0 7.35 0 5.7 0 4 C0.66 3.67 1.32 3.34 2 3 C1.34 2.67 0.68 2.34 0 2 C0 1.34 0 0.68 0 0 Z " fill="#4E7093" transform="translate(77,134)"/>
<path d="M0 0 C1.98 0 3.96 0 6 0 C6 0.66 6 1.32 6 2 C4.68 2 3.36 2 2 2 C2.845625 2.7425 3.69125 3.485 4.5625 4.25 C7 7 7 7 6.875 9.25 C6 11 6 11 5 12 C3.33382885 12.04063832 1.66611905 12.042721 0 12 C-0.33 11.01 -0.66 10.02 -1 9 C0.65 9 2.3 9 4 9 C2.35 7.68 0.7 6.36 -1 5 C-0.67 3.35 -0.34 1.7 0 0 Z " fill="#385F87" transform="translate(44,131)"/>
<path d="M0 0 C2.5625 0.1875 2.5625 0.1875 4.5625 2.1875 C4.5625 3.1775 4.5625 4.1675 4.5625 5.1875 C2.9125 5.5175 1.2625 5.8475 -0.4375 6.1875 C1.2125 6.5175 2.8625 6.8475 4.5625 7.1875 C3.9025 7.8475 3.2425 8.5075 2.5625 9.1875 C-1.99305556 8.63194444 -1.99305556 8.63194444 -3.4375 7.1875 C-3.5625 4.1875 -3.5625 4.1875 -3.4375 1.1875 C-2.4375 0.1875 -2.4375 0.1875 0 0 Z " fill="#4E7092" transform="translate(122.4375,133.8125)"/>
<path d="M0 0 C0.25 2.3125 0.25 2.3125 0 5 C-2 6.8125 -2 6.8125 -4 8 C-3.67 6.68 -3.34 5.36 -3 4 C-5.30142435 5.78174788 -6.80034391 7.16304165 -7.48828125 10.046875 C-7.72323102 12.0246611 -7.86751458 14.01271872 -8 16 C-8.33 16 -8.66 16 -9 16 C-9.144375 15.05125 -9.28875 14.1025 -9.4375 13.125 C-9.82935399 10.1065506 -9.82935399 10.1065506 -11 8 C-8.21659292 4.18570141 -5.12174212 0 0 0 Z " fill="#DCE4E9" transform="translate(90,55)"/>
<path d="M0 0 C2.31 0.33 4.62 0.66 7 1 C7 2.98 7 4.96 7 7 C4.69 6.67 2.38 6.34 0 6 C0 4.02 0 2.04 0 0 Z " fill="#234F7C" transform="translate(85,98)"/>
<path d="M0 0 C0.66 0.33 1.32 0.66 2 1 C2.625 3.5625 2.625 3.5625 3 6 C3.99 6.33 4.98 6.66 6 7 C6.33 6.01 6.66 5.02 7 4 C7 6.31 7 8.62 7 11 C6.67 10.01 6.34 9.02 6 8 C4.68 8 3.36 8 2 8 C2 9.65 2 11.3 2 13 C1.01 13 0.02 13 -1 13 C-0.34 12.67 0.32 12.34 1 12 C1 10.68 1 9.36 1 8 C-2.3 8 -5.6 8 -9 8 C-4.64467851 5.82233925 -3.53374042 5.96960445 1 7 C0.67 4.69 0.34 2.38 0 0 Z " fill="#204A75" transform="translate(101,61)"/>
<path d="M0 0 C1.65 0 3.3 0 5 0 C5 0.66 5 1.32 5 2 C4.01 2.495 4.01 2.495 3 3 C3.66 3.33 4.32 3.66 5 4 C4.67 5.65 4.34 7.3 4 9 C2.35 9 0.7 9 -1 9 C-1 8.34 -1 7.68 -1 7 C0.32 7 1.64 7 3 7 C3 6.34 3 5.68 3 5 C1.68 4.67 0.36 4.34 -1 4 C-0.67 2.68 -0.34 1.36 0 0 Z " fill="#3C6186" transform="translate(143,134)"/>
<path d="M0 0 C2.97 0 5.94 0 9 0 C9 0.99 9 1.98 9 3 C7.68 3 6.36 3 5 3 C5 4.32 5 5.64 5 7 C4.34 7 3.68 7 3 7 C3 6.34 3 5.68 3 5 C2.34 5 1.68 5 1 5 C0.67 3.35 0.34 1.7 0 0 Z " fill="#C7D3DD" transform="translate(87,69)"/>
<path d="M0 0 C0.33 0 0.66 0 1 0 C1 2.31 1 4.62 1 7 C-2.61973402 8.31626692 -5.09567131 9 -9 9 C-9.33 7.68 -9.66 6.36 -10 5 C-7.03 5 -4.06 5 -1 5 C-0.67 3.35 -0.34 1.7 0 0 Z " fill="#C1B9C4" transform="translate(103,69)"/>
<path d="M0 0 C3.96 0 7.92 0 12 0 C12 0.99 12 1.98 12 3 C10.1746875 2.9690625 10.1746875 2.9690625 8.3125 2.9375 C5.08022678 2.93175884 2.15065259 3.21233685 -1 4 C-0.67 2.68 -0.34 1.36 0 0 Z " fill="#EFF2F4" transform="translate(90,55)"/>
<path d="M0 0 C0.66 0 1.32 0 2 0 C2 3.96 2 7.92 2 12 C1.01 12 0.02 12 -1 12 C-1.66 10.35 -2.32 8.7 -3 7 C-2.34 7 -1.68 7 -1 7 C-0.67 4.69 -0.34 2.38 0 0 Z " fill="#3D6288" transform="translate(115,131)"/>
<path d="M0 0 C0.66 0 1.32 0 2 0 C1.71640113 1.4391134 1.42278601 2.87625518 1.125 4.3125 C0.96257812 5.11300781 0.80015625 5.91351563 0.6328125 6.73828125 C0 9 0 9 -2 12 C-2.99 12 -3.98 12 -5 12 C-5 11.34 -5 10.68 -5 10 C-4.34 10 -3.68 10 -3 10 C-3 8.68 -3 7.36 -3 6 C-2.34 6 -1.68 6 -1 6 C-0.67 4.02 -0.34 2.04 0 0 Z " fill="#305780" transform="translate(73,134)"/>
<path d="M0 0 C1.32 0.33 2.64 0.66 4 1 C4 1.66 4 2.32 4 3 C5.32 3.33 6.64 3.66 8 4 C6.68 4.33 5.36 4.66 4 5 C3.67 6.32 3.34 7.64 3 9 C2.01 9 1.02 9 0 9 C0.66 6.36 1.32 3.72 2 1 C1.34 0.67 0.68 0.34 0 0 Z " fill="#D7DFE5" transform="translate(73,133)"/>
<path d="M0 0 C0.99 0.66 1.98 1.32 3 2 C-2.73230171 4.85288164 -7.59859065 6.53444296 -14 7 C-11.73725135 4.73725135 -9.97142905 4.07338058 -7 2.9375 C-3.45044525 1.58079164 -3.45044525 1.58079164 0 0 Z " fill="#CE3E46" transform="translate(110,72)"/>
<path d="M0 0 C2.9375 0.8125 2.9375 0.8125 6 2 C7 5 7 5 6 8 C4.68 7.67 3.36 7.34 2 7 C1.34 4.69 0.68 2.38 0 0 Z " fill="#9BAEC1" transform="translate(101,60)"/>
<path d="M0 0 C2.64 0 5.28 0 8 0 C8 1.32 8 2.64 8 4 C5.36 4 2.72 4 0 4 C0 2.68 0 1.36 0 0 Z " fill="#7B95AE" transform="translate(85,109)"/>
<path d="M0 0 C0.99 0 1.98 0 3 0 C3 1.98 3 3.96 3 6 C3.66 6 4.32 6 5 6 C5 4.02 5 2.04 5 0 C5.33 0 5.66 0 6 0 C6 2.31 6 4.62 6 7 C3.03 6.505 3.03 6.505 0 6 C0 4.02 0 2.04 0 0 Z " fill="#D0D9E1" transform="translate(94,136)"/>
<path d="M0 0 C0.99 0.33 1.98 0.66 3 1 C1.4972742 5.20763224 -1.23332995 6.8027758 -5 9 C-5.66 9 -6.32 9 -7 9 C-7 8.34 -7 7.68 -7 7 C-6.401875 6.773125 -5.80375 6.54625 -5.1875 6.3125 C-2.43648112 4.66188867 -1.47515363 2.8027919 0 0 Z " fill="#D6DFE5" transform="translate(109,107)"/>
<path d="M0 0 C0 1.32 0 2.64 0 4 C-2.8125 4.625 -2.8125 4.625 -6 5 C-6.99 4.34 -7.98 3.68 -9 3 C-8.01 3 -7.02 3 -6 3 C-6 2.34 -6 1.68 -6 1 C-4 0 -4 0 0 0 Z " fill="#A1B4C7" transform="translate(96,64)"/>
<path d="M0 0 C0.99 0.33 1.98 0.66 3 1 C3 2.32 3 3.64 3 5 C4.65 5.33 6.3 5.66 8 6 C7.34 6.66 6.68 7.32 6 8 C1.44444444 7.44444444 1.44444444 7.44444444 0 6 C-0.04080783 4.00041636 -0.04254356 1.99954746 0 0 Z " fill="#375C83" transform="translate(119,135)"/>
<path d="M0 0 C1.258125 0.12375 2.51625 0.2475 3.8125 0.375 C4.87404297 0.47941406 4.87404297 0.47941406 5.95703125 0.5859375 C8 1 8 1 11 3 C10.67 3.66 10.34 4.32 10 5 C8.9275 4.67 7.855 4.34 6.75 4 C3.00268399 2.8282249 3.00268399 2.8282249 -1 3 C-0.67 2.01 -0.34 1.02 0 0 Z " fill="#355C84" transform="translate(94,57)"/>
<path d="M0 0 C0.66 0.99 1.32 1.98 2 3 C2.99 3.33 3.98 3.66 5 4 C5 4.66 5 5.32 5 6 C2.69 6.33 0.38 6.66 -2 7 C-1.34 4.69 -0.68 2.38 0 0 Z " fill="#D8E0E6" transform="translate(141,135)"/>
<path d="M0 0 C0.66 0 1.32 0 2 0 C4.74375671 2.95481492 5 3.77471908 5 8 C4.01 8 3.02 8 2 8 C0.74335022 5.09399739 0 3.20395416 0 0 Z " fill="#2C547D" transform="translate(128,134)"/>
<path d="M0 0 C1.32 0 2.64 0 4 0 C4.66 1.98 5.32 3.96 6 6 C5.01 6 4.02 6 3 6 C2.67 4.68 2.34 3.36 2 2 C1.34 2 0.68 2 0 2 C0 1.34 0 0.68 0 0 Z " fill="#4B6C8F" transform="translate(66,134)"/>
<path d="M0 0 C0.99 0 1.98 0 3 0 C3.33 1.65 3.66 3.3 4 5 C2.68 5.33 1.36 5.66 0 6 C0 4.02 0 2.04 0 0 Z " fill="#CFD1D9" transform="translate(104,69)"/>
<path d="M0 0 C1.04449911 3.13349732 0.93423645 3.98968256 0 7 C-2 5.625 -2 5.625 -4 4 C-4 3.34 -4 2.68 -4 2 C-2.68 2 -1.36 2 0 2 C0 1.34 0 0.68 0 0 Z " fill="#D3DBE2" transform="translate(50,131)"/>
<path d="M0 0 C0.25 2.3125 0.25 2.3125 0 5 C-2 6.8125 -2 6.8125 -4 8 C-3.814375 7.21625 -3.62875 6.4325 -3.4375 5.625 C-2.74037734 3.02910225 -2.74037734 3.02910225 -4 1 C-2 0 -2 0 0 0 Z " fill="#C2CED9" transform="translate(90,55)"/>
</svg>
